<svg xmlns="http://www.w3.org/2000/svg" xmlns:xlink="http://www.w3.org/1999/xlink" width="1303" zoomAndPan="magnify" viewBox="0 0 977.25 341.249999" height="455" preserveAspectRatio="xMidYMid meet" version="1.0"><defs><g/></defs><g fill="#ffffff" fill-opacity="1"><g transform="translate(18.729366, 244.583268)"><g><path d="M 100.875 -156.421875 L 100.875 -125.140625 L 47.015625 -125.140625 L 47.015625 -94.046875 L 98.59375 -94.046875 L 98.59375 -62.765625 L 47.015625 -62.765625 L 47.015625 -31.28125 L 100.875 -31.28125 L 100.875 0 L 11.375 0 L 11.375 -156.421875 Z M 100.875 -156.421875 "/></g></g></g><g fill="#ffffff" fill-opacity="1"><g transform="translate(119.21814, 244.583268)"><g><path d="M 18.015625 -12.03125 C 8.910156 -21.957031 4.359375 -34.125 4.359375 -48.53125 C 4.359375 -62.945312 8.910156 -75.144531 18.015625 -85.125 C 27.117188 -95.113281 38.6875 -100.109375 52.71875 -100.109375 C 65.601562 -100.109375 76.21875 -96.066406 84.5625 -87.984375 L 84.5625 -97.265625 L 118.125 -97.265625 L 118.125 0 L 84.9375 0 L 84.9375 -11 L 84.5625 -11 C 76.21875 -1.769531 65.601562 2.84375 52.71875 2.84375 C 38.6875 2.84375 27.117188 -2.113281 18.015625 -12.03125 Z M 46.546875 -65.03125 C 42.179688 -60.738281 40 -55.238281 40 -48.53125 C 40 -41.832031 42.082031 -36.363281 46.25 -32.125 C 50.425781 -27.894531 55.929688 -25.78125 62.765625 -25.78125 C 69.335938 -25.78125 74.738281 -27.929688 78.96875 -32.234375 C 83.207031 -36.535156 85.328125 -41.972656 85.328125 -48.546875 C 85.328125 -55.242188 83.144531 -60.738281 78.78125 -65.03125 C 74.414062 -69.332031 69.078125 -71.484375 62.765625 -71.484375 C 56.316406 -71.484375 50.910156 -69.332031 46.546875 -65.03125 Z M 46.546875 -65.03125 "/></g></g></g><g fill="#ffffff" fill-opacity="1"><g transform="translate(239.235998, 244.583268)"><g><path d="M 53.65625 -100.109375 C 59.21875 -100.109375 64.71875 -99.476562 70.15625 -98.21875 C 75.59375 -96.957031 79.640625 -95.691406 82.296875 -94.421875 L 86.265625 -92.53125 L 75.28125 -70.53125 C 67.6875 -74.582031 60.476562 -76.609375 53.65625 -76.609375 C 49.863281 -76.609375 47.175781 -76.195312 45.59375 -75.375 C 44.019531 -74.550781 43.234375 -73 43.234375 -70.71875 C 43.234375 -70.21875 43.296875 -69.710938 43.421875 -69.203125 C 43.546875 -68.703125 43.796875 -68.226562 44.171875 -67.78125 C 44.554688 -67.34375 44.90625 -66.960938 45.21875 -66.640625 C 45.539062 -66.328125 46.078125 -65.976562 46.828125 -65.59375 C 47.585938 -65.21875 48.1875 -64.9375 48.625 -64.75 C 49.070312 -64.5625 49.800781 -64.273438 50.8125 -63.890625 C 51.820312 -63.515625 52.578125 -63.234375 53.078125 -63.046875 C 53.585938 -62.859375 54.441406 -62.570312 55.640625 -62.1875 C 56.847656 -61.8125 57.769531 -61.5625 58.40625 -61.4375 C 62.320312 -60.300781 65.734375 -59.035156 68.640625 -57.640625 C 71.546875 -56.253906 74.609375 -54.359375 77.828125 -51.953125 C 81.054688 -49.546875 83.554688 -46.507812 85.328125 -42.84375 C 87.097656 -39.1875 87.984375 -35.019531 87.984375 -30.34375 C 87.984375 -8.21875 72.625 2.84375 41.90625 2.84375 C 34.945312 2.84375 28.335938 1.769531 22.078125 -0.375 C 15.828125 -2.53125 11.3125 -4.679688 8.53125 -6.828125 L 4.359375 -10.234375 L 18.015625 -33.1875 C 19.023438 -32.300781 20.347656 -31.253906 21.984375 -30.046875 C 23.628906 -28.847656 26.601562 -27.207031 30.90625 -25.125 C 35.207031 -23.039062 38.9375 -22 42.09375 -22 C 49.039062 -22 52.515625 -24.335938 52.515625 -29.015625 C 52.515625 -31.160156 51.628906 -32.832031 49.859375 -34.03125 C 48.097656 -35.238281 45.097656 -36.597656 40.859375 -38.109375 C 36.628906 -39.628906 33.3125 -41.019531 30.90625 -42.28125 C 24.84375 -45.4375 20.039062 -49.003906 16.5 -52.984375 C 12.957031 -56.972656 11.1875 -62.253906 11.1875 -68.828125 C 11.1875 -78.691406 15.007812 -86.367188 22.65625 -91.859375 C 30.300781 -97.359375 40.632812 -100.109375 53.65625 -100.109375 Z M 53.65625 -100.109375 "/></g></g></g><g fill="#ffffff" fill-opacity="1"><g transform="translate(323.039725, 244.583268)"><g><path d="M 85.140625 -97.265625 L 123.8125 -97.265625 L 47.40625 49.296875 L 8.71875 49.296875 L 42.28125 -15.171875 L -3.796875 -97.265625 L 34.890625 -97.265625 L 62 -47.40625 Z M 85.140625 -97.265625 "/></g></g></g><g fill="#5db85e" fill-opacity="1"><g transform="translate(433.587107, 244.583268)"><g><path d="M 142.78125 -156.421875 L 65.21875 -31.28125 L 137.65625 -31.28125 L 137.65625 0 L 3.03125 0 L 80.390625 -125.140625 L 14.03125 -125.140625 L 14.03125 -156.421875 Z M 142.78125 -156.421875 "/></g></g></g><g fill="#5db85e" fill-opacity="1"><g transform="translate(569.910796, 244.583268)"><g><path d="M 18.015625 -12.03125 C 8.910156 -21.957031 4.359375 -34.125 4.359375 -48.53125 C 4.359375 -62.945312 8.910156 -75.144531 18.015625 -85.125 C 27.117188 -95.113281 38.6875 -100.109375 52.71875 -100.109375 C 65.601562 -100.109375 76.21875 -96.066406 84.5625 -87.984375 L 84.5625 -97.265625 L 118.125 -97.265625 L 118.125 0 L 84.9375 0 L 84.9375 -11 L 84.5625 -11 C 76.21875 -1.769531 65.601562 2.84375 52.71875 2.84375 C 38.6875 2.84375 27.117188 -2.113281 18.015625 -12.03125 Z M 46.546875 -65.03125 C 42.179688 -60.738281 40 -55.238281 40 -48.53125 C 40 -41.832031 42.082031 -36.363281 46.25 -32.125 C 50.425781 -27.894531 55.929688 -25.78125 62.765625 -25.78125 C 69.335938 -25.78125 74.738281 -27.929688 78.96875 -32.234375 C 83.207031 -36.535156 85.328125 -41.972656 85.328125 -48.546875 C 85.328125 -55.242188 83.144531 -60.738281 78.78125 -65.03125 C 74.414062 -69.332031 69.078125 -71.484375 62.765625 -71.484375 C 56.316406 -71.484375 50.910156 -69.332031 46.546875 -65.03125 Z M 46.546875 -65.03125 "/></g></g></g><g fill="#5db85e" fill-opacity="1"><g transform="translate(689.928643, 244.583268)"><g><path d="M 111.484375 -85.21875 C 120.585938 -75.300781 125.140625 -63.132812 125.140625 -48.71875 C 125.140625 -34.3125 120.585938 -22.113281 111.484375 -12.125 C 102.390625 -2.144531 90.828125 2.84375 76.796875 2.84375 C 63.898438 2.84375 53.28125 -1.203125 44.9375 -9.296875 L 44.9375 49.296875 L 11.375 49.296875 L 11.375 -97.265625 L 44.5625 -97.265625 L 44.5625 -86.265625 L 44.9375 -86.265625 C 53.28125 -95.492188 63.898438 -100.109375 76.796875 -100.109375 C 90.828125 -100.109375 102.390625 -95.144531 111.484375 -85.21875 Z M 82.953125 -32.234375 C 87.316406 -36.535156 89.5 -42.035156 89.5 -48.734375 C 89.5 -55.429688 87.410156 -60.894531 83.234375 -65.125 C 79.066406 -69.363281 73.570312 -71.484375 66.75 -71.484375 C 60.164062 -71.484375 54.753906 -69.332031 50.515625 -65.03125 C 46.285156 -60.738281 44.171875 -55.304688 44.171875 -48.734375 C 44.171875 -42.035156 46.351562 -36.535156 50.71875 -32.234375 C 55.082031 -27.929688 60.425781 -25.78125 66.75 -25.78125 C 73.1875 -25.78125 78.585938 -27.929688 82.953125 -32.234375 Z M 82.953125 -32.234375 "/></g></g></g><g fill="#5db85e" fill-opacity="1"><g transform="translate(809.946501, 244.583268)"><g><path d="M 111.484375 -85.21875 C 120.585938 -75.300781 125.140625 -63.132812 125.140625 -48.71875 C 125.140625 -34.3125 120.585938 -22.113281 111.484375 -12.125 C 102.390625 -2.144531 90.828125 2.84375 76.796875 2.84375 C 63.898438 2.84375 53.28125 -1.203125 44.9375 -9.296875 L 44.9375 49.296875 L 11.375 49.296875 L 11.375 -97.265625 L 44.5625 -97.265625 L 44.5625 -86.265625 L 44.9375 -86.265625 C 53.28125 -95.492188 63.898438 -100.109375 76.796875 -100.109375 C 90.828125 -100.109375 102.390625 -95.144531 111.484375 -85.21875 Z M 82.953125 -32.234375 C 87.316406 -36.535156 89.5 -42.035156 89.5 -48.734375 C 89.5 -55.429688 87.410156 -60.894531 83.234375 -65.125 C 79.066406 -69.363281 73.570312 -71.484375 66.75 -71.484375 C 60.164062 -71.484375 54.753906 -69.332031 50.515625 -65.03125 C 46.285156 -60.738281 44.171875 -55.304688 44.171875 -48.734375 C 44.171875 -42.035156 46.351562 -36.535156 50.71875 -32.234375 C 55.082031 -27.929688 60.425781 -25.78125 66.75 -25.78125 C 73.1875 -25.78125 78.585938 -27.929688 82.953125 -32.234375 Z M 82.953125 -32.234375 "/></g></g></g></svg>